HIERARCHY
ROOT Hips
{
  OFFSET -1.22667 96.1883 60.4921
  CHANNELS 6 Xposition Yposition Zposition Zrotation Xrotation Yrotation
  JOINT Chest
  {
    OFFSET 0 10.5691 -1.07959
    CHANNELS 6 Xposition Yposition Zposition Zrotation Xrotation Yrotation
    JOINT Chest2
    {
      OFFSET 0 11.6675 1.08235
      CHANNELS 6 Xposition Yposition Zposition Zrotation Xrotation Yrotation
      JOINT Chest3
      {
        OFFSET 0 10.5876 0
        CHANNELS 6 Xposition Yposition Zposition Zrotation Xrotation Yrotation
        JOINT Chest4
        {
          OFFSET 0 10.5876 0
          CHANNELS 6 Xposition Yposition Zposition Zrotation Xrotation Yrotation
          JOINT Neck
          {
            OFFSET 0 14.88 0
            CHANNELS 6 Xposition Yposition Zposition Zrotation Xrotation Yrotation
            JOINT Head
            {
              OFFSET 0 9.61472 2.16553
              CHANNELS 6 Xposition Yposition Zposition Zrotation Xrotation Yrotation
              End Site
              {
                OFFSET 0 0 0
              }
            }
          }
          JOINT RightCollar
          {
            OFFSET -3.23953 8.30385 0
            CHANNELS 6 Xposition Yposition Zposition Zrotation Xrotation Yrotation
            JOINT RightShoulder
            {
              OFFSET -15.1725 0 0
              CHANNELS 6 Xposition Yposition Zposition Zrotation Xrotation Yrotation
              JOINT RightElbow
              {
                OFFSET -32.4113 0 0
                CHANNELS 6 Xposition Yposition Zposition Zrotation Xrotation Yrotation
                JOINT RightWrist
                {
                  OFFSET -26.4919 0 1.0813
                  CHANNELS 6 Xposition Yposition Zposition Zrotation Xrotation Yrotation
                  End Site
                  {
                    OFFSET 0 0 0
                  }
                }
              }
            }
          }
          JOINT LeftCollar
          {
            OFFSET 3.23953 8.30385 0
            CHANNELS 6 Xposition Yposition Zposition Zrotation Xrotation Yrotation
            JOINT LeftShoulder
            {
              OFFSET 15.1725 0 0
              CHANNELS 6 Xposition Yposition Zposition Zrotation Xrotation Yrotation
              JOINT LeftElbow
              {
                OFFSET 32.4113 0 0
                CHANNELS 6 Xposition Yposition Zposition Zrotation Xrotation Yrotation
                JOINT LeftWrist
                {
                  OFFSET 26.4919 0 1.0813
                  CHANNELS 6 Xposition Yposition Zposition Zrotation Xrotation Yrotation
                  End Site
                  {
                    OFFSET 0 0 0
                  }
                }
              }
            }
          }
        }
      }
    }
  }
  JOINT RightHip
  {
    OFFSET -8.63673 0.00547028 0
    CHANNELS 6 Xposition Yposition Zposition Zrotation Xrotation Yrotation
    JOINT RightKnee
    {
      OFFSET 0 -44.4932 -2.13963
      CHANNELS 6 Xposition Yposition Zposition Zrotation Xrotation Yrotation
      JOINT RightAnkle
      {
        OFFSET 0 -43.4407 -3.54051
        CHANNELS 6 Xposition Yposition Zposition Zrotation Xrotation Yrotation
        JOINT RightToe
        {
          OFFSET 0 -8.39271 19.1252
          CHANNELS 6 Xposition Yposition Zposition Zrotation Xrotation Yrotation
          End Site
          {
            OFFSET 0 0 0
          }
        }
      }
    }
  }
  JOINT LeftHip
  {
    OFFSET 8.63673 0.00547028 0
    CHANNELS 6 Xposition Yposition Zposition Zrotation Xrotation Yrotation
    JOINT LeftKnee
    {
      OFFSET 0 -44.4933 -2.13962
      CHANNELS 6 Xposition Yposition Zposition Zrotation Xrotation Yrotation
      JOINT LeftAnkle
      {
        OFFSET 0 -43.4408 -3.5405
        CHANNELS 6 Xposition Yposition Zposition Zrotation Xrotation Yrotation
        JOINT LeftToe
        {
          OFFSET 0 -8.3927 19.1252
          CHANNELS 6 Xposition Yposition Zposition Zrotation Xrotation Yrotation
          End Site
          {
            OFFSET 0 0 0
          }
        }
      }
    }
  }
}
MOTION
Frames:	7
Frame Time:	0.0333333
173.428 91.0441 9.03784 2.87685 1.29152 -165.193 0 10.5691 -1.07959 -0.169082 1.26204 0.0138131 0 11.6675 1.08235 -0.338698 2.52404 0.0314455 2.84217e-014 10.5876 0 -0.338699 2.52404 0.0314425 -2.84217e-014 10.5876 -7.10543e-015 -0.338699 2.52404 0.0314473 2.84217e-014 14.8799 -7.49065e-006 9.94408 -14.7496 10.2016 -2.84217e-014 9.61472 2.16553 -13.9323 10.8458 15.4338 -3.23953 8.30385 1.42109e-014 1.39149e-015 0 1.59028e-015 -15.1725 -4.76837e-006 0 52.8415 42.9884 13.9395 -32.4113 3.40385e-006 3.07919e-006 -25.8494 -26.3018 84.309 -26.4919 -1.56836e-006 1.0813 0.557567 -0.0201534 6.46152 3.23953 8.30385 0 1.39149e-015 0 1.59028e-015 15.1725 -4.76837e-006 -1.42109e-014 -71.0625 33.34 -6.33739 32.4113 -3.55128e-007 1.04245e-006 6.01285 -24.6519 -116.559 26.4919 6.02036e-007 1.0813 -12.4219 -1.50401 15.6727 -8.63673 0.00547028 7.10543e-015 -9.65337 -27.1998 -10.7552 -6.85604e-006 -44.4932 -2.14061 9.24648 63.0803 -3.88633 3.35951e-008 -43.4407 -3.54051 -10.562 5.35177 -10.5364 -5.66749e-008 -8.39271 19.1252 -4.77126 -9.48123 -0.307575 8.63673 0.00547028 0 -5.76901 -29.6936 2.34967 7.30033e-007 -44.4933 -2.13962 -4.36665 31.4889 -4.12139 3.51788e-007 -43.4408 -3.5405 0.688575 -0.48129 -1.40437 -1.38711e-007 -8.3927 19.1252 -1.26676 2.76331 -3.24815 
173.031 90.2669 4.67124 2.54801 1.80182 -163.967 -2.84217e-014 10.5691 -1.07959 -0.187502 1.70262 -0.144741 2.84217e-014 11.6675 1.08235 -0.370816 3.40569 -0.284014 -2.84217e-014 10.5876 -7.10543e-015 -0.370815 3.40569 -0.284023 0 10.5876 -7.10543e-015 -0.370814 3.40569 -0.284017 -2.84217e-014 14.8799 -7.49065e-006 11.2749 -18.8177 12.6728 -2.84217e-014 9.61472 2.16553 -15.0152 11.6044 17.7847 -3.23953 8.30385 1.42109e-014 -7.95139e-016 1.59028e-015 -0 -15.1725 -4.76837e-006 0 53.0271 39.4264 13.974 -32.4113 3.40385e-006 3.07919e-006 -30.7647 -20.5051 77.3071 -26.4919 -1.56836e-006 1.0813 -7.51454 -0.90123 12.2025 3.23953 8.30385 0 -7.95139e-016 1.59028e-015 -0 15.1725 -4.76837e-006 -1.42109e-014 -64.087 26.1845 -18.924 32.4113 -3.55128e-007 1.04245e-006 0.223794 -18.4469 -118.71 26.4919 6.02036e-007 1.0813 -7.3711 -1.13292 18.9996 -8.63673 0.00547028 7.10543e-015 -10.3528 -31.0256 -8.38055 -6.85604e-006 -44.4932 -2.14061 -0.155375 58.3729 2.87626 3.35951e-008 -43.4407 -3.54051 -4.15455 6.46701 -10.1748 -5.66749e-008 -8.39271 19.1252 -8.18331 -16.0973 -5.53928 8.63673 0.00547028 0 -5.88939 -29.7751 -2.42272 7.30033e-007 -44.4933 -2.13962 -8.53702 37.7061 -3.88976 3.51787e-007 -43.4408 -3.5405 5.25795 -0.332498 1.86095 -1.38711e-007 -8.3927 19.1252 4.41464 -5.09058 -2.19497 
172.878 90.0308 0.677301 3.28795 1.797 -162.075 0 10.5691 -1.07959 -0.197162 1.80104 -0.1788 0 11.6675 1.08235 -0.388978 3.60269 -0.351662 -5.68434e-014 10.5876 -1.42109e-014 -0.388978 3.60269 -0.351663 -2.84217e-014 10.5876 -1.42109e-014 -0.388977 3.60269 -0.351662 0 14.8799 -7.49065e-006 12.4926 -17.6694 13.3799 0 9.61472 2.16553 -16.4212 8.74039 18.8905 -3.23953 8.30385 1.42109e-014 -2.38542e-015 1.59028e-015 3.18055e-015 -15.1725 -4.76837e-006 0 57.9157 36.0463 10.1512 -32.4113 3.40385e-006 3.07919e-006 -26.4126 -14.9229 74.6785 -26.4919 -1.56836e-006 1.0813 -17.9442 -1.64656 9.20408 3.23953 8.30385 0 -2.38542e-015 1.59028e-015 3.18055e-015 15.1725 -4.76837e-006 -1.42109e-014 -59.745 23.0577 -27.4991 32.4113 -3.55128e-007 1.04245e-006 -2.21504 -15.1816 -116.464 26.4919 6.02036e-007 1.0813 -1.10908 -0.170164 19.1131 -8.63673 0.00547028 1.42109e-014 -8.11422 -31.8277 -5.65969 -6.85604e-006 -44.4932 -2.14061 -9.45814 46.8242 9.27849 3.35951e-008 -43.4407 -3.54051 -2.1353 1.56525 -3.79575 -5.66749e-008 -8.39271 19.1252 -6.28294 -13.1085 -7.48755 8.63673 0.00547028 7.10543e-015 -4.39258 -30.208 -1.56401 7.30033e-007 -44.4933 -2.13962 -9.0326 42.5742 -2.59854 3.51787e-007 -43.4408 -3.5405 4.2358 -1.92289 -0.676022 -1.38711e-007 -8.3927 19.1252 7.0438 -8.43291 -2.38576 
172.6 90.0632 -3.25912 4.04019 0.955212 -159.246 0 10.5691 -1.07959 -0.0590525 1.75901 -0.319464 0 11.6675 1.08235 -0.10831 3.51822 -0.63752 -2.84217e-014 10.5876 -1.42109e-014 -0.108309 3.51822 -0.637517 0 10.5876 -1.42109e-014 -0.108308 3.51822 -0.637524 2.84217e-014 14.8799 -7.49065e-006 10.9356 -16.4536 14.0081 -2.84217e-014 9.61472 2.16553 -17.6933 7.29016 19.6166 -3.23953 8.30385 1.42109e-014 -0 0 6.36111e-015 -15.1725 -4.76837e-006 0 61.1012 35.3855 6.56067 -32.4113 3.40385e-006 3.07919e-006 -15.7846 -13.677 74.9049 -26.4919 -1.56836e-006 1.0813 -25.8672 -0.537437 0.401101 3.23953 8.30385 0 -0 0 6.36111e-015 15.1725 -4.76837e-006 0 -59.9836 22.2551 -31.8881 32.4113 -3.55128e-007 1.04245e-006 -4.30822 -12.9091 -114.498 26.4919 6.02036e-007 1.0813 3.12665 0.490254 19.6286 -8.63673 0.00547028 -7.10543e-015 -7.88394 -30.8487 -1.11362 -6.85604e-006 -44.4932 -2.14061 -8.84002 33.6509 15.8682 3.35951e-008 -43.4407 -3.54051 -0.16373 1.40609 -2.02847 -5.66748e-008 -8.39271 19.1252 -7.04438 -14.2696 -5.96187 8.63673 0.00547028 0 -3.50608 -30.7504 -0.683848 7.30033e-007 -44.4933 -2.13962 -8.99589 46.091 -4.38353 3.51788e-007 -43.4408 -3.5405 3.70426 -2.26392 -1.10776 -1.38711e-007 -8.3927 19.1252 8.70806 -10.5733 -2.17794 
172.178 90.2843 -7.32415 4.55128 0.142976 -154.855 2.84217e-014 10.5691 -1.07959 0.194186 1.73013 -0.594334 -5.68434e-014 11.6675 1.08235 0.406549 3.45817 -1.19537 -2.84217e-014 10.5876 0 0.406548 3.45817 -1.19537 0 10.5876 -1.42109e-014 0.406547 3.45817 -1.19537 0 14.8799 -7.49065e-006 7.37038 -15.9382 15.0015 0 9.61472 2.16553 -17.5808 7.02642 20.0013 -3.23953 8.30385 -1.42109e-014 0 1.59028e-015 -0 -15.1725 -4.76837e-006 0 63.5819 36.2009 2.57747 -32.4113 3.40385e-006 3.07919e-006 -9.08525 -14.7874 75.3015 -26.4919 -1.56836e-006 1.0813 -26.5757 0.615417 -4.36127 3.23953 8.30385 0 0 1.59028e-015 -0 15.1725 -4.76837e-006 -1.42109e-014 -61.9604 22.7862 -33.0589 32.4113 -3.55128e-007 1.04245e-006 -5.4352 -12.2704 -113.153 26.4919 6.02036e-007 1.0813 2.37008 0.391588 20.3971 -8.63673 0.00547028 -1.42109e-014 -10.6986 -29.1621 6.05047 -6.85604e-006 -44.4932 -2.14061 -1.96666 25.6305 16.2378 3.35951e-008 -43.4407 -3.54051 2.09977 2.30945 -1.62029 -5.66749e-008 -8.39271 19.1252 -6.8297 -14.0069 -7.39659 8.63673 0.00547028 -1.42109e-014 -3.08046 -32.0104 -0.597837 7.30033e-007 -44.4933 -2.13962 -9.1901 50.2022 -4.51448 3.51787e-007 -43.4408 -3.5405 0.913605 -1.22224 -2.21583 -1.38711e-007 -8.3927 19.1252 8.44665 -10.1728 -3.15575 
171.96 90.403 -11.7822 5.22923 0.0599054 -148.899 -2.84217e-014 10.5691 -1.07959 0.317965 1.7825 -0.841138 -2.84217e-014 11.6675 1.08235 0.662568 3.56025 -1.6933 0 10.5876 0 0.662565 3.56025 -1.6933 0 10.5876 0 0.662567 3.56025 -1.6933 -5.68434e-014 14.8799 -7.49065e-006 7.99813 -15.8489 15.2968 0 9.61472 2.16553 -18.5411 7.68309 20.7308 -3.23953 8.30385 0 -1.59028e-015 3.18055e-015 6.36111e-015 -15.1725 -4.76837e-006 -1.42109e-014 67.1084 37.6329 -1.4784 -32.4113 3.40385e-006 3.07919e-006 -11.1911 -16.107 75.6542 -26.4919 -1.56836e-006 1.0813 -26.8613 0.514942 -3.93894 3.23953 8.30385 1.42109e-014 -1.59028e-015 3.18055e-015 6.36111e-015 15.1725 -4.76837e-006 -1.42109e-014 -62.0232 26.2698 -33.0124 32.4113 -3.55128e-007 1.04245e-006 -4.10567 -13.9101 -110.955 26.4919 6.02036e-007 1.0813 0.549994 0.0825436 19.4391 -8.63673 0.00547028 0 -12.9676 -27.551 10.0377 -6.85604e-006 -44.4932 -2.14061 1.46333 24.4833 8.65991 3.35951e-008 -43.4407 -3.54051 9.22798 2.73689 1.01577 -5.66749e-008 -8.39271 19.1252 -6.59323 -13.2421 -2.81058 8.63673 0.00547028 0 -0.605588 -35.6305 1.57468 7.30033e-007 -44.4933 -2.13962 -9.12016 57.4444 -1.43577 3.51787e-007 -43.4408 -3.5405 -8.05914 2.53557 -4.7517 -1.38711e-007 -8.3927 19.1252 1.20714 0.663865 -6.25968 
171.95 89.91 -16.4413 5.18434 0.331626 -142.539 0 10.5691 -1.07959 0.272388 1.77439 -0.891879 0 11.6675 1.08235 0.572797 3.54426 -1.79343 -2.84217e-014 10.5876 -1.42109e-014 0.572798 3.54426 -1.79344 2.84217e-014 10.5876 -1.42109e-014 0.572797 3.54426 -1.79344 2.84217e-014 14.8799 -7.49065e-006 8.91386 -13.3293 14.164 1.42109e-014 9.61472 2.16553 -17.6568 6.47685 19.7136 -3.23953 8.30385 0 -2.38542e-015 -1.59028e-015 3.18055e-015 -15.1725 -4.76837e-006 -1.42109e-014 71.0591 39.6312 -5.79667 -32.4113 3.40385e-006 3.07919e-006 -19.6516 -17.3125 74.9133 -26.4919 -1.56836e-006 1.0813 -27.6139 -0.458162 0.212449 3.23953 8.30385 0 -2.38542e-015 -1.59028e-015 3.18055e-015 15.1725 -4.76837e-006 0 -61.0383 31.3156 -31.8966 32.4113 -3.55128e-007 1.04245e-006 -2.49201 -16.0531 -108.548 26.4919 6.02036e-007 1.0813 -2.10934 -0.305467 18.6902 -8.63673 0.00547028 -1.42109e-014 -15.1642 -24.0348 6.05149 -6.85604e-006 -44.4932 -2.1406 2.35402 24.8583 5.6834 3.35951e-008 -43.4407 -3.54051 13.0803 6.4797 -1.65578 -5.66748e-008 -8.39271 19.1252 -8.33291 -16.3907 0.864724 8.63673 0.00547028 -1.42109e-014 3.0545 -39.9267 4.8012 7.30033e-007 -44.4933 -2.13962 -10.1048 64.9677 3.49434 3.51788e-007 -43.4408 -3.5405 -15.9025 6.26565 -6.5563 -1.38711e-007 -8.3927 19.1252 -13.3649 20.7345 -4.77442 
